<?xml version="1.0" encoding="utf-8"?>
<!-- Generator: Adobe Illustrator 26.1.0, SVG Export Plug-In . SVG Version: 6.00 Build 0)  -->
<svg version="1.1" id="Capa_1" xmlns="http://www.w3.org/2000/svg" xmlns:xlink="http://www.w3.org/1999/xlink" x="0px" y="0px"
	 viewBox="0 0 173 96.91" style="enable-background:new 0 0 173 96.91;" xml:space="preserve">
<style type="text/css">
	.st0{opacity:0.8;fill:url(#SVGID_1_);}
	.st1{opacity:0.8;fill:url(#SVGID_00000074420533676319529440000013913371349393215366_);}
	.st2{fill-rule:evenodd;clip-rule:evenodd;fill:#FFFFFF;}
	.st3{fill:#FFFFFF;}
</style>
<g>
	<linearGradient id="SVGID_1_" gradientUnits="userSpaceOnUse" x1="18.6222" y1="47.9277" x2="172.9995" y2="47.9277">
		<stop  offset="0" style="stop-color:#FFFFFF"/>
		<stop  offset="0.0229" style="stop-color:#FCF6F5"/>
		<stop  offset="0.1965" style="stop-color:#E6B6B2"/>
		<stop  offset="0.361" style="stop-color:#D38079"/>
		<stop  offset="0.5118" style="stop-color:#C5574D"/>
		<stop  offset="0.6461" style="stop-color:#BB392D"/>
		<stop  offset="0.759" style="stop-color:#B4271A"/>
		<stop  offset="0.8368" style="stop-color:#B22013"/>
	</linearGradient>
	<path class="st0" d="M31.36,78.1C74.18,94.26,122.42,100.01,173,92.77c0,0-20.99-34.62-52.07-56.75C96.71,18.78,63.2,3.44,18.62,0
		C18.74,25.29,23.51,51.74,31.36,78.1"/>
	
		<linearGradient id="SVGID_00000005951196954821690840000014099874090411934642_" gradientUnits="userSpaceOnUse" x1="20.1604" y1="6.6947" x2="113.3109" y2="117.7071">
		<stop  offset="0" style="stop-color:#FDFDFD"/>
		<stop  offset="0.047" style="stop-color:#F0F0F1"/>
		<stop  offset="0.269" style="stop-color:#B7B9BB"/>
		<stop  offset="0.4745" style="stop-color:#8B8D91"/>
		<stop  offset="0.6572" style="stop-color:#6B6D73"/>
		<stop  offset="0.8101" style="stop-color:#575A61"/>
		<stop  offset="0.9146" style="stop-color:#50535A"/>
	</linearGradient>
	<path style="opacity:0.8;fill:url(#SVGID_00000005951196954821690840000014099874090411934642_);" d="M0,23.61
		c40.79-3.66,73.39,5.1,97.88,16.99c31.44,15.27,55.66,43.35,55.66,43.35c-44.59,14.22-89.03,16.36-130.16,8.27
		C12.27,69.6,3.95,46.44,0,23.61"/>
	<g>
		<path class="st2" d="M65.95,61.83c-7.09,2.65-14.87,4.33-22.19,5.02c2.24-2.81,4.65-5.48,7.21-7.98
			c6.56-0.01,13.44-1.36,19.35-4.48c0.43-0.23,1.05,0,1.09,0.64c0.13,2.88,0.07,5.8-0.13,8.67c-2.13,1.53-4.34,2.95-6.64,4.24
			C65.15,66.14,65.63,64.08,65.95,61.83z"/>
		<path class="st2" d="M70.52,48.14c-4.24,2.25-8.4,5.33-12.22,8.85c3.51-0.43,7.75-1.41,11.8-3.53c0.36-0.18,0.94-0.75,0.87-1.66
			C70.86,50.55,70.71,49.33,70.52,48.14z"/>
		<path class="st2" d="M47.86,68c-2.2,2.62-4.1,5.2-5.86,7.87c4.04-0.66,7.97-1.67,11.77-3c0.69-1.43,2.31-4.53,4.84-7.76
			C55.49,66.53,50.78,67.59,47.86,68z"/>
		<g>
			<path class="st3" d="M71.6,68.4l-3.97,7.66h1.63l0.88-1.79h4.19l0.88,1.79h1.66l-3.93-7.66H71.6z M73.69,73.03h-2.91l1.47-2.91
				L73.69,73.03z"/>
			<polygon class="st3" points="84.22,74.06 78.89,68.4 77.53,68.4 77.53,76.06 78.94,76.06 78.92,70.39 84.23,76 84.29,76.06 
				85.59,76.06 85.59,68.4 84.19,68.4 			"/>
			<path class="st3" d="M121.04,68.4v4.64c0,0.36,0,0.67-0.15,0.97c-0.03,0.07-0.16,0.28-0.36,0.44c-0.61,0.45-1.71,0.47-1.93,0.47
				c-0.77,0-1.37-0.15-1.86-0.45c-0.22-0.14-0.51-0.33-0.6-0.93c-0.04-0.24-0.04-0.49-0.04-0.6l0-4.54h-1.45v4.47
				c0,0.62,0.02,1.18,0.33,1.75c0.13,0.23,0.35,0.56,0.79,0.87c0.71,0.49,1.65,0.75,2.79,0.75h0.03c1.89,0,3.2-0.65,3.68-1.83
				c0.2-0.49,0.22-0.92,0.22-1.44V68.4H121.04z M118.56,76.03L118.56,76.03L118.56,76.03L118.56,76.03z"/>
			<polygon class="st3" points="107.62,72.73 113.13,72.73 113.13,71.45 107.62,71.45 107.62,69.71 113.27,69.71 113.27,68.4 
				106.18,68.4 106.18,76.06 113.54,76.06 113.54,74.75 107.62,74.75 			"/>
			<path class="st3" d="M93.71,69.02c-0.57-0.37-1.26-0.59-1.98-0.61c-0.21-0.01-0.41-0.01-0.62-0.01H87.3v7.66h3.1
				c1.12,0,2.51,0,3.59-0.91c0.81-0.68,1.3-1.79,1.3-2.97C95.29,70.83,94.72,69.68,93.71,69.02z M93.03,74.13
				c-0.67,0.59-1.49,0.61-1.81,0.62l-0.04,0c-0.17,0.01-0.34,0.02-0.52,0.02h-1.9v-5.1h2.36c0.37,0,0.75,0.01,1.06,0.1
				c1.02,0.27,1.64,1.16,1.65,2.37C93.83,72.62,93.72,73.51,93.03,74.13z"/>
			<path class="st3" d="M103.35,72.78c1.13-0.47,1.3-1.49,1.3-2.05c0-1.11-0.63-1.93-1.68-2.21c-0.32-0.09-0.56-0.12-1.2-0.12h-5.14
				v7.66h1.45v-2.9h3.19l2.45,2.9h1.9l-2.74-3.14C103.08,72.88,103.22,72.84,103.35,72.78z M103.17,70.77
				c0,0.26-0.07,0.48-0.22,0.66c-0.33,0.42-0.9,0.45-1.51,0.45h-3.37v-2.21h3.77c0.59,0,0.94,0.08,1.17,0.49
				C103.17,70.44,103.17,70.69,103.17,70.77z"/>
		</g>
	</g>
</g>
</svg>
