<?xml version="1.0" encoding="UTF-8"?>
<!-- Generator: Adobe Illustrator 28.0.0, SVG Export Plug-In . SVG Version: 6.00 Build 0)  -->
<svg xmlns="http://www.w3.org/2000/svg" xmlns:xlink="http://www.w3.org/1999/xlink" version="1.1" id="Modo_de_aislamiento" x="0px" y="0px" viewBox="0 0 674 105.5" style="enable-background:new 0 0 674 105.5;" xml:space="preserve">
<style type="text/css">
	.st0{fill:#171714;}
	.st1{fill:url(#SVGID_1_);}
	.st2{fill:url(#SVGID_00000036223089274613176840000016501664475928201861_);}
	.st3{fill:url(#SVGID_00000135665804628605082660000002763778407219192499_);}
	.st4{fill:url(#SVGID_00000116915268005079939540000010943096715583922614_);}
	.st5{fill:url(#SVGID_00000023275010641528478830000013899929630100968618_);}
	.st6{fill:url(#SVGID_00000161619931713297981620000013962050788572122256_);}
	.st7{fill:url(#SVGID_00000168088525231437611510000004637512006595638666_);}
	.st8{fill:url(#SVGID_00000010269006817481229100000000061798201776159142_);}
	.st9{fill:url(#SVGID_00000020398699583505043070000001780955542080826551_);}
	.st10{fill:url(#SVGID_00000036251236677275560120000003500423603885320895_);}
	.st11{fill:url(#SVGID_00000052104101427227685560000012862406920486452924_);}
	.st12{fill:url(#SVGID_00000181771344165173983240000009278837343321475001_);}
	.st13{fill:url(#SVGID_00000163050572324612046170000010298558744416737177_);}
	.st14{fill:url(#SVGID_00000139982583138835249020000001763513129920115647_);}
	.st15{fill:url(#SVGID_00000053513127985415243910000016908768974044194749_);}
	.st16{fill:url(#SVGID_00000042009188943772972570000003643949738425047475_);}
	.st17{fill:url(#SVGID_00000026861295224175465070000010792230202583982015_);}
	.st18{opacity:0.8;fill:none;stroke:#FFFFFF;stroke-miterlimit:10;enable-background:new    ;}
	.st19{opacity:0.9;}
	.st20{fill:#FFFFFF;}
</style>
<path class="st0" d="M70.6,99.3L70.6,99.3L52.8,45.9L68.3,5.5c0.2-0.4,0-0.9-0.4-1.2C67.5,4,67,4,66.6,4.3l-0.3,0.3l0,0L4.6,52.4  c-0.3,0.2-0.4,0.5-0.4,0.8s0.2,0.6,0.4,0.8L69,100.4l0,0c0.1,0,0.1,0.1,0.2,0.1h0.1c0.1,0,0.2,0,0.3,0l0,0l0,0l0,0  c0.1,0,0.2,0,0.3-0.1c0,0,0.1,0,0.1-0.1c0.1,0,0.1-0.1,0.2-0.1l0,0l0,0c0.1-0.1,0.2-0.2,0.3-0.3c0,0,0-0.1,0.1-0.1  c0-0.1,0.1-0.2,0.1-0.2v-0.1C70.7,99.4,70.7,99.3,70.6,99.3C70.6,99.4,70.6,99.4,70.6,99.3z M64.1,10.5L50.9,44.9l-16,2.1L64.1,10.5  z M34.4,49.2L51,47l15.5,46.5L34.4,49.2z"></path>
<path class="st0" d="M135.7,22.6L135.7,22.6c-0.1-0.1-0.1-0.2-0.2-0.3l0,0c0,0-0.1,0-0.1-0.1c-0.1-0.1-0.1-0.1-0.2-0.1  c-0.1,0-0.1,0-0.2,0h-0.1c0,0,0,0-0.1,0s-0.1,0-0.2,0c-0.1,0-0.1,0-0.2,0c0,0-0.1,0-0.1,0.1c-0.1,0-0.1,0.1-0.2,0.1  c0,0-0.1,0-0.1,0.1l-24.7,26.2l-32-42.8l0,0c-0.1-0.1-0.2-0.2-0.2-0.2l0,0c-0.1-0.1-0.2-0.1-0.4-0.1h-0.1c-0.1,0-0.1,0-0.2,0l0,0  h-0.1c-0.1,0-0.2,0.1-0.2,0.1s0,0-0.1,0c0,0,0,0-0.1,0.1s-0.1,0.1-0.2,0.2L75.6,6c0,0.1-0.1,0.1-0.1,0.2v0.1l0,0l-4.7,86.5  c0,0.5,0.3,0.9,0.7,1c0.1,0,0.2,0.1,0.3,0.1c0.3,0,0.7-0.2,0.9-0.5l23-34.2l11.9,46c0,0,0,0,0,0.1c0,0,0,0.1,0.1,0.1  c0,0.1,0.1,0.1,0.1,0.2l0.1,0.1c0.1,0.1,0.1,0.1,0.2,0.2c0,0,0,0,0.1,0l0,0c0.1,0,0.2,0.1,0.4,0.1l0,0h0.1c0,0,0,0,0.1,0  s0.2,0,0.2-0.1h0.1c0.1,0,0.1-0.1,0.2-0.2c0,0,0,0,0.1-0.1s0.1-0.2,0.2-0.3l0,0l0,0L122.4,74l15.1,24.3c0.2,0.3,0.5,0.5,0.9,0.5  c0.1,0,0.2,0,0.3,0c0.5-0.1,0.8-0.6,0.7-1l-3.7-74.9C135.7,22.8,135.7,22.7,135.7,22.6z M96.6,55.4L80.2,13.2l27.4,36.6L96.6,55.4z   M121.1,71.6l-11.5,28.1l0.5-49.1l22.5-23.9L121.1,71.6z M123.3,71.7L134,29.9l3.1,64L123.3,71.7z"></path>
<path class="st0" d="M168.8,61.1c3.2,1.7,6.7,2.5,10.6,2.5c3.3,0,6.3-0.6,9-1.8s5-2.9,6.8-5.1l-5.7-5.3c-2.6,3-5.8,4.5-9.6,4.5  c-2.4,0-4.5-0.5-6.4-1.6c-1.9-1-3.3-2.5-4.4-4.4c-1-1.9-1.6-4-1.6-6.4s0.5-4.5,1.6-6.4c1-1.9,2.5-3.3,4.4-4.4c1.9-1,4-1.6,6.4-1.6  c3.8,0,7.1,1.5,9.6,4.5l5.7-5.3c-1.8-2.2-4.1-3.9-6.8-5c-2.7-1.2-5.7-1.8-9-1.8c-3.9,0-7.5,0.8-10.7,2.5s-5.6,4.1-7.5,7.1  c-1.8,3-2.7,6.4-2.7,10.2s0.9,7.2,2.7,10.2C163.2,57.1,165.7,59.4,168.8,61.1z"></path>
<path class="st0" d="M210.9,54.8h17.8l3.4,8.2h9.3l-17.2-38.4h-8.8l-17,38.4h9.1L210.9,54.8z M219.8,33.4l6.1,14.7h-12.2L219.8,33.4  z"></path>
<path class="st0" d="M277.2,51.8c0-2.6-0.7-4.6-2-6.1s-2.9-2.6-4.8-3.3s-4.3-1.4-7.2-2.1c-2.8-0.6-4.9-1.3-6.3-1.9  c-1.4-0.6-2.1-1.6-2.1-2.9c0-1.3,0.6-2.4,1.8-3.2c1.2-0.8,3-1.2,5.5-1.2c3.5,0,7.1,1,10.6,3l2.7-6.7c-1.8-1.1-3.8-1.9-6.1-2.5  c-2.3-0.6-4.7-0.9-7.2-0.9c-3.5,0-6.5,0.5-8.9,1.6s-4.2,2.5-5.5,4.3c-1.2,1.8-1.8,3.8-1.8,6.1c0,2.6,0.7,4.6,2,6.1s2.9,2.6,4.8,3.3  c1.9,0.7,4.3,1.4,7.2,2.1c1.9,0.4,3.4,0.8,4.5,1.2s2,0.8,2.7,1.5c0.7,0.6,1.1,1.4,1.1,2.3c0,1.2-0.6,2.2-1.8,3  c-1.2,0.7-3.1,1.1-5.6,1.1c-2.3,0-4.5-0.4-6.8-1.1c-2.3-0.7-4.2-1.7-5.9-2.9l-3,6.7c1.7,1.3,4,2.4,6.8,3.2s5.8,1.2,8.8,1.2  c3.5,0,6.5-0.5,8.9-1.6s4.3-2.5,5.5-4.3C276.6,56,277.2,54,277.2,51.8z"></path>
<rect x="288.8" y="24.7" class="st0" width="8.9" height="38.4"></rect>
<polygon class="st0" points="318.4,39.7 337.6,63 344.9,63 344.9,24.7 336.1,24.7 336.1,47.9 317,24.7 309.7,24.7 309.7,63   318.4,63 "></polygon>
<path class="st0" d="M364.7,61.1c3.2,1.7,6.8,2.6,10.8,2.6s7.6-0.9,10.7-2.6c3.2-1.7,5.7-4.1,7.5-7.1s2.7-6.4,2.7-10.2  s-0.9-7.2-2.7-10.2c-1.8-3-4.3-5.4-7.5-7.1s-6.8-2.6-10.7-2.6c-4,0-7.6,0.9-10.8,2.6c-3.2,1.7-5.7,4.1-7.5,7.1s-2.7,6.4-2.7,10.2  s0.9,7.2,2.7,10.2C359,57,361.5,59.4,364.7,61.1z M365,37.5c1-1.9,2.5-3.3,4.3-4.4c1.8-1,3.9-1.6,6.1-1.6c2.3,0,4.3,0.5,6.1,1.6  c1.8,1,3.3,2.5,4.3,4.4s1.6,4,1.6,6.4s-0.5,4.5-1.6,6.4c-1,1.9-2.5,3.3-4.3,4.4c-1.8,1-3.9,1.6-6.1,1.6c-2.3,0-4.3-0.5-6.1-1.6  c-1.8-1-3.3-2.5-4.3-4.4s-1.6-4-1.6-6.4C363.5,41.5,364,39.3,365,37.5z"></path>
<path class="st0" d="M183.4,79.3c-1-1.6-2.3-2.8-4.1-3.7s-3.7-1.3-6-1.3h-9.5v20.9h9.5c2.3,0,4.3-0.4,6-1.3s3.1-2.1,4.1-3.7  s1.4-3.4,1.4-5.5C184.8,82.7,184.3,80.9,183.4,79.3z M178.1,89.6c-1.2,1.2-2.9,1.7-5,1.7h-4.4v-13h4.4c2.1,0,3.8,0.6,5,1.7  c1.2,1.2,1.9,2.7,1.9,4.7C179.9,86.8,179.3,88.4,178.1,89.6z"></path>
<polygon class="st0" points="207.2,78.3 207.2,74.4 191.4,74.4 191.4,95.3 207.6,95.3 207.6,91.4 196.3,91.4 196.3,86.6 206,86.6   206,82.8 196.3,82.8 196.3,78.3 "></polygon>
<polygon class="st0" points="242.9,74.4 235.2,87.4 227.3,74.4 223.3,74.4 223.3,95.3 227.9,95.3 227.9,83 234,93.1 236.2,93.1   242.3,82.7 242.4,95.3 246.9,95.3 246.8,74.4 "></polygon>
<polygon class="st0" points="268.1,78.3 268.1,74.4 252.3,74.4 252.3,95.3 268.5,95.3 268.5,91.4 257.1,91.4 257.1,86.6 266.8,86.6   266.8,82.8 257.1,82.8 257.1,78.3 "></polygon>
<polygon class="st0" points="289.7,87.1 279.3,74.4 275.3,74.4 275.3,95.3 280.1,95.3 280.1,82.6 290.5,95.3 294.4,95.3 294.4,74.4   289.7,74.4 "></polygon>
<path class="st0" d="M315.3,94c1.7-0.9,3.1-2.1,4.1-3.7s1.4-3.4,1.4-5.5s-0.5-3.9-1.4-5.5c-1-1.6-2.3-2.8-4.1-3.7  c-1.7-0.9-3.7-1.3-6-1.3h-9.5v20.9h9.5C311.6,95.3,313.6,94.8,315.3,94z M304.7,91.3v-13h4.4c2.1,0,3.8,0.6,5,1.7  c1.2,1.2,1.9,2.7,1.9,4.7s-0.6,3.6-1.9,4.7c-1.2,1.2-2.9,1.7-5,1.7h-4.4V91.3z"></path>
<path class="st0" d="M337.6,74c-2.2,0-4.1,0.5-5.9,1.4c-1.7,0.9-3.1,2.2-4.1,3.9c-1,1.6-1.5,3.5-1.5,5.5s0.5,3.9,1.5,5.5  s2.3,2.9,4.1,3.9c1.7,0.9,3.7,1.4,5.9,1.4c2.2,0,4.1-0.5,5.8-1.4c1.7-0.9,3.1-2.2,4.1-3.9c1-1.6,1.5-3.5,1.5-5.5s-0.5-3.9-1.5-5.5  s-2.4-2.9-4.1-3.9C341.7,74.5,339.8,74,337.6,74z M343.3,88.3c-0.6,1-1.3,1.8-2.3,2.4s-2.1,0.9-3.3,0.9c-1.2,0-2.3-0.3-3.3-0.9  s-1.8-1.4-2.3-2.4c-0.6-1-0.9-2.2-0.9-3.5s0.3-2.4,0.9-3.5s1.3-1.8,2.3-2.4s2.1-0.9,3.3-0.9c1.2,0,2.3,0.3,3.3,0.9s1.8,1.4,2.3,2.4  c0.6,1,0.9,2.2,0.9,3.5C344.1,86.1,343.8,87.3,343.3,88.3z"></path>
<polygon class="st0" points="369.8,91.3 357.9,91.3 369.4,77.5 369.4,74.4 351.8,74.4 351.8,78.3 363,78.3 351.5,92.1 351.5,95.3   369.8,95.3 "></polygon>
<path class="st0" d="M379.9,74.4l-9.3,20.9h5l1.8-4.5h9.7l1.9,4.5h5.1l-9.3-20.9H379.9z M379,87.1l3.3-8l3.3,8H379z"></path>
<linearGradient id="SVGID_1_" gradientUnits="userSpaceOnUse" x1="350.0567" y1="-112.6369" x2="-47.7916" y2="125.7316" gradientTransform="matrix(1 0 0 -1 0 105.8898)">
	<stop offset="0" style="stop-color:#D29947"></stop>
	<stop offset="0.2352" style="stop-color:#FCE38C"></stop>
	<stop offset="0.3166" style="stop-color:#E5BA66"></stop>
	<stop offset="0.3893" style="stop-color:#D29947"></stop>
	<stop offset="0.529" style="stop-color:#E8C273"></stop>
	<stop offset="0.6687" style="stop-color:#FCE89B"></stop>
	<stop offset="0.8047" style="stop-color:#987A44"></stop>
	<stop offset="0.8855" style="stop-color:#603D14"></stop>
	<stop offset="0.9219" style="stop-color:#795019"></stop>
	<stop offset="0.954" style="stop-color:#8A5E1D"></stop>
	<stop offset="1" style="stop-color:#D29947"></stop>
</linearGradient>
<path class="st1" d="M68.4,92.8L68.4,92.8c0-0.1,0-0.1,0-0.2L51.6,42.4l14.6-38c0.2-0.4,0-0.9-0.3-1.1c-0.4-0.3-0.8-0.3-1.2,0  l-0.3,0.2l0,0l-58,45C6,48.7,5.9,49,5.9,49.3s0.2,0.6,0.4,0.8l60.5,43.7l0,0c0.1,0,0.1,0.1,0.2,0.1c0,0,0,0,0.1,0s0.2,0,0.3,0l0,0  l0,0l0,0c0.1,0,0.2,0,0.3,0c0,0,0.1,0,0.1-0.1c0.1,0,0.1,0,0.2-0.1l0,0l0,0c0.1-0.1,0.2-0.2,0.2-0.3v-0.1c0-0.1,0.1-0.1,0.1-0.2V93  C68.4,92.9,68.4,92.9,68.4,92.8 M64.5,87.2L34.3,45.5l15.6-2.1L64.5,87.2z M49.8,41.5l-15.1,2L62.3,9.1L49.8,41.5z"></path>
<linearGradient id="SVGID_00000044143537116331834040000013710792803989247391_" gradientUnits="userSpaceOnUse" x1="401.2752" y1="-125.5417" x2="3.4269" y2="112.8268" gradientTransform="matrix(1 0 0 -1 0 105.8898)">
	<stop offset="0" style="stop-color:#D29947"></stop>
	<stop offset="0.2352" style="stop-color:#FCE38C"></stop>
	<stop offset="0.3166" style="stop-color:#E5BA66"></stop>
	<stop offset="0.3893" style="stop-color:#D29947"></stop>
	<stop offset="0.529" style="stop-color:#E8C273"></stop>
	<stop offset="0.6687" style="stop-color:#FCE89B"></stop>
	<stop offset="0.8047" style="stop-color:#987A44"></stop>
	<stop offset="0.8855" style="stop-color:#603D14"></stop>
	<stop offset="0.9219" style="stop-color:#795019"></stop>
	<stop offset="0.954" style="stop-color:#8A5E1D"></stop>
	<stop offset="1" style="stop-color:#D29947"></stop>
</linearGradient>
<path style="fill:url(#SVGID_00000044143537116331834040000013710792803989247391_);" d="M135.3,20.8c0-0.1,0-0.2-0.1-0.3l0,0  c0-0.1-0.1-0.2-0.2-0.3l0,0c0,0-0.1,0-0.1-0.1c-0.1,0-0.1-0.1-0.2-0.1c-0.1,0-0.1,0-0.2,0h-0.1c0,0,0,0-0.1,0s-0.1,0-0.2,0  c-0.1,0-0.1,0-0.2,0c0,0-0.1,0-0.1,0.1c-0.1,0-0.1,0.1-0.2,0.1c0,0,0,0-0.1,0l-23.3,24.7L80.3,4.7l0,0c-0.1-0.1-0.1-0.2-0.2-0.2l0,0  c-0.1-0.1-0.2-0.1-0.3-0.1h-0.1c-0.1,0-0.1,0-0.2,0l0,0h-0.1c-0.1,0-0.1,0.1-0.2,0.1c0,0,0,0-0.1,0c0,0,0,0-0.1,0.1  s-0.1,0.1-0.2,0.2l-0.1,0.1c0,0.1-0.1,0.1-0.1,0.2v0.1l0,0l-4.4,81.4c0,0.4,0.2,0.8,0.7,1c0.1,0,0.2,0.1,0.3,0.1  c0.3,0,0.6-0.2,0.8-0.4L97.6,55l11.2,43.3c0,0,0,0,0,0.1c0,0,0,0.1,0.1,0.1c0,0.1,0.1,0.1,0.1,0.2l0.1,0.1c0.1,0.1,0.1,0.1,0.2,0.1  c0,0,0,0,0.1,0l0,0c0.1,0,0.2,0.1,0.3,0.1l0,0h0.1c0,0,0,0,0.1,0s0.1,0,0.2-0.1h0.1c0.1,0,0.1-0.1,0.2-0.1c0,0,0,0,0.1-0.1  s0.1-0.2,0.2-0.3l0,0l0,0l12-29.4L137,91.9c0.2,0.3,0.5,0.5,0.8,0.5c0.1,0,0.2,0,0.3,0c0.4-0.1,0.7-0.5,0.7-1L135.3,20.8z   M121.6,66.6L110.8,93l0.5-46.2l21.2-22.5L121.6,66.6z M83.1,11.6L108.8,46l-10.3,5.3L83.1,11.6z M123.6,66.7l10.1-39.3l2.9,60.3  L123.6,66.7z"></path>
<linearGradient id="SVGID_00000166644205605319273820000004585489951299754425_" gradientUnits="userSpaceOnUse" x1="409.118" y1="-71.3373" x2="33.3474" y2="153.8034" gradientTransform="matrix(1 0 0 -1 0 105.8898)">
	<stop offset="0" style="stop-color:#D29947"></stop>
	<stop offset="0.2352" style="stop-color:#FCE38C"></stop>
	<stop offset="0.3166" style="stop-color:#E5BA66"></stop>
	<stop offset="0.3893" style="stop-color:#D29947"></stop>
	<stop offset="0.529" style="stop-color:#E8C273"></stop>
	<stop offset="0.6687" style="stop-color:#FCE89B"></stop>
	<stop offset="0.8047" style="stop-color:#987A44"></stop>
	<stop offset="0.8855" style="stop-color:#603D14"></stop>
	<stop offset="0.9219" style="stop-color:#795019"></stop>
	<stop offset="0.954" style="stop-color:#8A5E1D"></stop>
	<stop offset="1" style="stop-color:#D29947"></stop>
</linearGradient>
<path style="fill:url(#SVGID_00000166644205605319273820000004585489951299754425_);" d="M170.8,56.7c-3-1.6-5.3-3.8-7-6.7  c-1.7-2.8-2.6-6-2.6-9.6s0.9-6.8,2.6-9.6c1.7-2.8,4-5.1,7-6.7c3-1.6,6.3-2.4,10-2.4c3.1,0,6,0.6,8.5,1.7s4.6,2.7,6.4,4.7l-5.4,5  c-2.4-2.8-5.5-4.2-9.1-4.2c-2.2,0-4.2,0.5-6,1.5s-3.1,2.3-4.1,4.1s-1.5,3.7-1.5,6c0,2.2,0.5,4.2,1.5,6s2.3,3.1,4.1,4.1  s3.7,1.5,6,1.5c3.6,0,6.6-1.4,9.1-4.3l5.4,5c-1.7,2.1-3.9,3.7-6.4,4.8s-5.4,1.7-8.5,1.7C177.1,59.1,173.8,58.3,170.8,56.7"></path>
<linearGradient id="SVGID_00000075884166307207968030000015508105105006188423_" gradientUnits="userSpaceOnUse" x1="417.6685" y1="-57.0662" x2="41.8978" y2="168.0745" gradientTransform="matrix(1 0 0 -1 0 105.8898)">
	<stop offset="0" style="stop-color:#D29947"></stop>
	<stop offset="0.2352" style="stop-color:#FCE38C"></stop>
	<stop offset="0.3166" style="stop-color:#E5BA66"></stop>
	<stop offset="0.3893" style="stop-color:#D29947"></stop>
	<stop offset="0.529" style="stop-color:#E8C273"></stop>
	<stop offset="0.6687" style="stop-color:#FCE89B"></stop>
	<stop offset="0.8047" style="stop-color:#987A44"></stop>
	<stop offset="0.8855" style="stop-color:#603D14"></stop>
	<stop offset="0.9219" style="stop-color:#795019"></stop>
	<stop offset="0.954" style="stop-color:#8A5E1D"></stop>
	<stop offset="1" style="stop-color:#D29947"></stop>
</linearGradient>
<path style="fill:url(#SVGID_00000075884166307207968030000015508105105006188423_);" d="M229.5,50.8h-16.8l-3.2,7.7H201l16.1-36.1  h8.3l16.1,36.1h-8.8L229.5,50.8z M226.9,44.4l-5.7-13.8l-5.7,13.8H226.9z"></path>
<linearGradient id="SVGID_00000106849983751597925130000004731535072067269805_" gradientUnits="userSpaceOnUse" x1="430.6876" y1="-35.3366" x2="54.917" y2="189.804" gradientTransform="matrix(1 0 0 -1 0 105.8898)">
	<stop offset="0" style="stop-color:#D29947"></stop>
	<stop offset="0.2352" style="stop-color:#FCE38C"></stop>
	<stop offset="0.3166" style="stop-color:#E5BA66"></stop>
	<stop offset="0.3893" style="stop-color:#D29947"></stop>
	<stop offset="0.529" style="stop-color:#E8C273"></stop>
	<stop offset="0.6687" style="stop-color:#FCE89B"></stop>
	<stop offset="0.8047" style="stop-color:#987A44"></stop>
	<stop offset="0.8855" style="stop-color:#603D14"></stop>
	<stop offset="0.9219" style="stop-color:#795019"></stop>
	<stop offset="0.954" style="stop-color:#8A5E1D"></stop>
	<stop offset="1" style="stop-color:#D29947"></stop>
</linearGradient>
<path style="fill:url(#SVGID_00000106849983751597925130000004731535072067269805_);" d="M254,58c-2.7-0.8-4.8-1.8-6.4-3l2.8-6.3  c1.5,1.1,3.4,2,5.5,2.7c2.1,0.7,4.3,1,6.4,1c2.4,0,4.1-0.4,5.3-1.1c1.1-0.7,1.7-1.6,1.7-2.8c0-0.9-0.3-1.6-1-2.1  c-0.7-0.6-1.5-1-2.6-1.4c-1-0.3-2.5-0.7-4.3-1.1c-2.8-0.7-5-1.3-6.8-2s-3.3-1.7-4.5-3.1c-1.3-1.4-1.9-3.4-1.9-5.8  c0-2.1,0.6-4,1.7-5.7c1.1-1.7,2.8-3.1,5.1-4c2.3-1,5.1-1.5,8.4-1.5c2.3,0,4.6,0.3,6.8,0.8c2.2,0.6,4.1,1.3,5.8,2.4l-2.6,6.3  c-3.3-1.9-6.7-2.8-10-2.8c-2.3,0-4.1,0.4-5.2,1.1c-1.1,0.8-1.7,1.8-1.7,3c0,1.2,0.6,2.2,1.9,2.8s3.3,1.2,5.9,1.8  c2.8,0.7,5,1.3,6.8,2s3.3,1.7,4.5,3.1c1.3,1.4,1.9,3.3,1.9,5.7c0,2.1-0.6,3.9-1.7,5.6c-1.2,1.7-2.9,3.1-5.2,4  c-2.3,1-5.1,1.5-8.4,1.5C259.4,59.1,256.6,58.7,254,58"></path>
<linearGradient id="SVGID_00000009549629067797303380000001636124261633731474_" gradientUnits="userSpaceOnUse" x1="438.6684" y1="-22.0163" x2="62.8977" y2="203.1245" gradientTransform="matrix(1 0 0 -1 0 105.8898)">
	<stop offset="0" style="stop-color:#D29947"></stop>
	<stop offset="0.2352" style="stop-color:#FCE38C"></stop>
	<stop offset="0.3166" style="stop-color:#E5BA66"></stop>
	<stop offset="0.3893" style="stop-color:#D29947"></stop>
	<stop offset="0.529" style="stop-color:#E8C273"></stop>
	<stop offset="0.6687" style="stop-color:#FCE89B"></stop>
	<stop offset="0.8047" style="stop-color:#987A44"></stop>
	<stop offset="0.8855" style="stop-color:#603D14"></stop>
	<stop offset="0.9219" style="stop-color:#795019"></stop>
	<stop offset="0.954" style="stop-color:#8A5E1D"></stop>
	<stop offset="1" style="stop-color:#D29947"></stop>
</linearGradient>
<rect x="288.5" y="22.4" style="fill:url(#SVGID_00000009549629067797303380000001636124261633731474_);" width="8.4" height="36.1"></rect>
<linearGradient id="SVGID_00000038404408240636072330000010783860334611146924_" gradientUnits="userSpaceOnUse" x1="447.742" y1="-6.872" x2="71.9713" y2="218.2686" gradientTransform="matrix(1 0 0 -1 0 105.8898)">
	<stop offset="0" style="stop-color:#D29947"></stop>
	<stop offset="0.2352" style="stop-color:#FCE38C"></stop>
	<stop offset="0.3166" style="stop-color:#E5BA66"></stop>
	<stop offset="0.3893" style="stop-color:#D29947"></stop>
	<stop offset="0.529" style="stop-color:#E8C273"></stop>
	<stop offset="0.6687" style="stop-color:#FCE89B"></stop>
	<stop offset="0.8047" style="stop-color:#987A44"></stop>
	<stop offset="0.8855" style="stop-color:#603D14"></stop>
	<stop offset="0.9219" style="stop-color:#795019"></stop>
	<stop offset="0.954" style="stop-color:#8A5E1D"></stop>
	<stop offset="1" style="stop-color:#D29947"></stop>
</linearGradient>
<polygon style="fill:url(#SVGID_00000038404408240636072330000010783860334611146924_);" points="343.6,22.4 343.6,58.5 336.8,58.5   318.8,36.6 318.8,58.5 310.5,58.5 310.5,22.4 317.4,22.4 335.4,44.3 335.4,22.4 "></polygon>
<linearGradient id="SVGID_00000005236455861070952770000003338962813407207555_" gradientUnits="userSpaceOnUse" x1="460.3769" y1="14.2162" x2="84.6062" y2="239.3568" gradientTransform="matrix(1 0 0 -1 0 105.8898)">
	<stop offset="0" style="stop-color:#D29947"></stop>
	<stop offset="0.2352" style="stop-color:#FCE38C"></stop>
	<stop offset="0.3166" style="stop-color:#E5BA66"></stop>
	<stop offset="0.3893" style="stop-color:#D29947"></stop>
	<stop offset="0.529" style="stop-color:#E8C273"></stop>
	<stop offset="0.6687" style="stop-color:#FCE89B"></stop>
	<stop offset="0.8047" style="stop-color:#987A44"></stop>
	<stop offset="0.8855" style="stop-color:#603D14"></stop>
	<stop offset="0.9219" style="stop-color:#795019"></stop>
	<stop offset="0.954" style="stop-color:#8A5E1D"></stop>
	<stop offset="1" style="stop-color:#D29947"></stop>
</linearGradient>
<path style="fill:url(#SVGID_00000005236455861070952770000003338962813407207555_);" d="M364.7,56.7c-3-1.6-5.4-3.8-7.1-6.7  c-1.7-2.8-2.6-6-2.6-9.6c0-3.5,0.9-6.7,2.6-9.6c1.7-2.8,4.1-5.1,7.1-6.7c3-1.6,6.4-2.4,10.1-2.4s7.1,0.8,10.1,2.4s5.3,3.8,7.1,6.7  c1.7,2.8,2.6,6,2.6,9.6c0,3.5-0.9,6.7-2.6,9.6c-1.7,2.8-4.1,5.1-7.1,6.7c-3,1.6-6.4,2.4-10.1,2.4C371.1,59.1,367.7,58.3,364.7,56.7   M380.6,50.5c1.7-1,3.1-2.3,4-4.1c1-1.8,1.5-3.7,1.5-6c0-2.2-0.5-4.2-1.5-6s-2.3-3.1-4-4.1s-3.6-1.5-5.8-1.5c-2.1,0-4.1,0.5-5.8,1.5  c-1.7,1-3.1,2.3-4,4.1s-1.5,3.7-1.5,6c0,2.2,0.5,4.2,1.5,6s2.3,3.1,4,4.1s3.6,1.5,5.8,1.5S378.9,51.5,380.6,50.5"></path>
<linearGradient id="SVGID_00000131334490371488647300000009310633741049015486_" gradientUnits="userSpaceOnUse" x1="388.844" y1="-105.1757" x2="13.0734" y2="119.965" gradientTransform="matrix(1 0 0 -1 0 105.8898)">
	<stop offset="0" style="stop-color:#D29947"></stop>
	<stop offset="0.2352" style="stop-color:#FCE38C"></stop>
	<stop offset="0.3166" style="stop-color:#E5BA66"></stop>
	<stop offset="0.3893" style="stop-color:#D29947"></stop>
	<stop offset="0.529" style="stop-color:#E8C273"></stop>
	<stop offset="0.6687" style="stop-color:#FCE89B"></stop>
	<stop offset="0.8047" style="stop-color:#987A44"></stop>
	<stop offset="0.8855" style="stop-color:#603D14"></stop>
	<stop offset="0.9219" style="stop-color:#795019"></stop>
	<stop offset="0.954" style="stop-color:#8A5E1D"></stop>
	<stop offset="1" style="stop-color:#D29947"></stop>
</linearGradient>
<path style="fill:url(#SVGID_00000131334490371488647300000009310633741049015486_);" d="M166.1,71.6h8.9c2.1,0,4,0.4,5.7,1.2  c1.6,0.8,2.9,2,3.8,3.4c0.9,1.5,1.4,3.2,1.4,5.2s-0.5,3.7-1.4,5.2s-2.2,2.6-3.8,3.4s-3.5,1.2-5.7,1.2h-8.9V71.6z M174.8,87.5  c2,0,3.5-0.5,4.7-1.6s1.8-2.6,1.8-4.5s-0.6-3.4-1.8-4.5s-2.7-1.6-4.7-1.6h-4.2v12.2H174.8z"></path>
<linearGradient id="SVGID_00000174563707833580769070000001774691967044671138_" gradientUnits="userSpaceOnUse" x1="395.9735" y1="-93.2761" x2="20.2029" y2="131.8646" gradientTransform="matrix(1 0 0 -1 0 105.8898)">
	<stop offset="0" style="stop-color:#D29947"></stop>
	<stop offset="0.2352" style="stop-color:#FCE38C"></stop>
	<stop offset="0.3166" style="stop-color:#E5BA66"></stop>
	<stop offset="0.3893" style="stop-color:#D29947"></stop>
	<stop offset="0.529" style="stop-color:#E8C273"></stop>
	<stop offset="0.6687" style="stop-color:#FCE89B"></stop>
	<stop offset="0.8047" style="stop-color:#987A44"></stop>
	<stop offset="0.8855" style="stop-color:#603D14"></stop>
	<stop offset="0.9219" style="stop-color:#795019"></stop>
	<stop offset="0.954" style="stop-color:#8A5E1D"></stop>
	<stop offset="1" style="stop-color:#D29947"></stop>
</linearGradient>
<polygon style="fill:url(#SVGID_00000174563707833580769070000001774691967044671138_);" points="207.3,87.6 207.3,91.3 192.1,91.3   192.1,71.6 206.9,71.6 206.9,75.3 196.6,75.3 196.6,79.5 205.7,79.5 205.7,83.1 196.6,83.1 196.6,87.6 "></polygon>
<linearGradient id="SVGID_00000119803925561612184910000015025896545174692783_" gradientUnits="userSpaceOnUse" x1="405.4962" y1="-77.3824" x2="29.7255" y2="147.7583" gradientTransform="matrix(1 0 0 -1 0 105.8898)">
	<stop offset="0" style="stop-color:#D29947"></stop>
	<stop offset="0.2352" style="stop-color:#FCE38C"></stop>
	<stop offset="0.3166" style="stop-color:#E5BA66"></stop>
	<stop offset="0.3893" style="stop-color:#D29947"></stop>
	<stop offset="0.529" style="stop-color:#E8C273"></stop>
	<stop offset="0.6687" style="stop-color:#FCE89B"></stop>
	<stop offset="0.8047" style="stop-color:#987A44"></stop>
	<stop offset="0.8855" style="stop-color:#603D14"></stop>
	<stop offset="0.9219" style="stop-color:#795019"></stop>
	<stop offset="0.954" style="stop-color:#8A5E1D"></stop>
	<stop offset="1" style="stop-color:#D29947"></stop>
</linearGradient>
<polygon style="fill:url(#SVGID_00000119803925561612184910000015025896545174692783_);" points="242.4,91.3 242.3,79.5 236.6,89.2   234.5,89.2 228.8,79.7 228.8,91.3 224.5,91.3 224.5,71.6 228.2,71.6 235.6,83.8 242.9,71.6 246.6,71.6 246.6,91.3 "></polygon>
<linearGradient id="SVGID_00000072990266599756597170000000400968171303520191_" gradientUnits="userSpaceOnUse" x1="412.364" y1="-65.9195" x2="36.5934" y2="159.2213" gradientTransform="matrix(1 0 0 -1 0 105.8898)">
	<stop offset="0" style="stop-color:#D29947"></stop>
	<stop offset="0.2352" style="stop-color:#FCE38C"></stop>
	<stop offset="0.3166" style="stop-color:#E5BA66"></stop>
	<stop offset="0.3893" style="stop-color:#D29947"></stop>
	<stop offset="0.529" style="stop-color:#E8C273"></stop>
	<stop offset="0.6687" style="stop-color:#FCE89B"></stop>
	<stop offset="0.8047" style="stop-color:#987A44"></stop>
	<stop offset="0.8855" style="stop-color:#603D14"></stop>
	<stop offset="0.9219" style="stop-color:#795019"></stop>
	<stop offset="0.954" style="stop-color:#8A5E1D"></stop>
	<stop offset="1" style="stop-color:#D29947"></stop>
</linearGradient>
<polygon style="fill:url(#SVGID_00000072990266599756597170000000400968171303520191_);" points="269.3,87.6 269.3,91.3 254.1,91.3   254.1,71.6 269,71.6 269,75.3 258.6,75.3 258.6,79.5 267.8,79.5 267.8,83.1 258.6,83.1 258.6,87.6 "></polygon>
<linearGradient id="SVGID_00000006709975123271730420000007213398255229648521_" gradientUnits="userSpaceOnUse" x1="418.5055" y1="-55.6691" x2="42.7349" y2="169.4717" gradientTransform="matrix(1 0 0 -1 0 105.8898)">
	<stop offset="0" style="stop-color:#D29947"></stop>
	<stop offset="0.2352" style="stop-color:#FCE38C"></stop>
	<stop offset="0.3166" style="stop-color:#E5BA66"></stop>
	<stop offset="0.3893" style="stop-color:#D29947"></stop>
	<stop offset="0.529" style="stop-color:#E8C273"></stop>
	<stop offset="0.6687" style="stop-color:#FCE89B"></stop>
	<stop offset="0.8047" style="stop-color:#987A44"></stop>
	<stop offset="0.8855" style="stop-color:#603D14"></stop>
	<stop offset="0.9219" style="stop-color:#795019"></stop>
	<stop offset="0.954" style="stop-color:#8A5E1D"></stop>
	<stop offset="1" style="stop-color:#D29947"></stop>
</linearGradient>
<polygon style="fill:url(#SVGID_00000006709975123271730420000007213398255229648521_);" points="293.8,71.6 293.8,91.3 290.1,91.3   280.3,79.3 280.3,91.3 275.8,91.3 275.8,71.6 279.5,71.6 289.3,83.5 289.3,71.6 "></polygon>
<linearGradient id="SVGID_00000064318748095051995500000004066257138194586497_" gradientUnits="userSpaceOnUse" x1="424.5571" y1="-45.5687" x2="48.7865" y2="179.572" gradientTransform="matrix(1 0 0 -1 0 105.8898)">
	<stop offset="0" style="stop-color:#D29947"></stop>
	<stop offset="0.2352" style="stop-color:#FCE38C"></stop>
	<stop offset="0.3166" style="stop-color:#E5BA66"></stop>
	<stop offset="0.3893" style="stop-color:#D29947"></stop>
	<stop offset="0.529" style="stop-color:#E8C273"></stop>
	<stop offset="0.6687" style="stop-color:#FCE89B"></stop>
	<stop offset="0.8047" style="stop-color:#987A44"></stop>
	<stop offset="0.8855" style="stop-color:#603D14"></stop>
	<stop offset="0.9219" style="stop-color:#795019"></stop>
	<stop offset="0.954" style="stop-color:#8A5E1D"></stop>
	<stop offset="1" style="stop-color:#D29947"></stop>
</linearGradient>
<path style="fill:url(#SVGID_00000064318748095051995500000004066257138194586497_);" d="M301.3,71.6h8.9c2.1,0,4,0.4,5.7,1.2  c1.6,0.8,2.9,2,3.8,3.4c0.9,1.5,1.4,3.2,1.4,5.2s-0.5,3.7-1.4,5.2s-2.2,2.6-3.8,3.4c-1.6,0.8-3.5,1.2-5.7,1.2h-8.9V71.6z M310,87.5  c2,0,3.5-0.5,4.7-1.6s1.8-2.6,1.8-4.5s-0.6-3.4-1.8-4.5c-1.2-1.1-2.7-1.6-4.7-1.6h-4.2v12.2H310z"></path>
<linearGradient id="SVGID_00000054225760808377666750000010425331357422991805_" gradientUnits="userSpaceOnUse" x1="432.2193" y1="-32.7801" x2="56.4488" y2="192.3606" gradientTransform="matrix(1 0 0 -1 0 105.8898)">
	<stop offset="0" style="stop-color:#D29947"></stop>
	<stop offset="0.2352" style="stop-color:#FCE38C"></stop>
	<stop offset="0.3166" style="stop-color:#E5BA66"></stop>
	<stop offset="0.3893" style="stop-color:#D29947"></stop>
	<stop offset="0.529" style="stop-color:#E8C273"></stop>
	<stop offset="0.6687" style="stop-color:#FCE89B"></stop>
	<stop offset="0.8047" style="stop-color:#987A44"></stop>
	<stop offset="0.8855" style="stop-color:#603D14"></stop>
	<stop offset="0.9219" style="stop-color:#795019"></stop>
	<stop offset="0.954" style="stop-color:#8A5E1D"></stop>
	<stop offset="1" style="stop-color:#D29947"></stop>
</linearGradient>
<path style="fill:url(#SVGID_00000054225760808377666750000010425331357422991805_);" d="M331.3,90.3c-1.6-0.9-2.9-2.1-3.8-3.6  s-1.4-3.3-1.4-5.2c0-1.9,0.5-3.7,1.4-5.2s2.2-2.8,3.8-3.6c1.6-0.9,3.5-1.3,5.5-1.3s3.9,0.4,5.5,1.3s2.9,2.1,3.8,3.6s1.4,3.3,1.4,5.2  c0,1.9-0.5,3.7-1.4,5.2s-2.2,2.8-3.8,3.6c-1.6,0.9-3.5,1.3-5.5,1.3C334.8,91.6,332.9,91.2,331.3,90.3 M339.9,86.9  c0.9-0.5,1.7-1.3,2.2-2.2c0.5-1,0.8-2,0.8-3.3c0-1.2-0.3-2.3-0.8-3.3s-1.3-1.7-2.2-2.2c-0.9-0.5-2-0.8-3.1-0.8s-2.2,0.3-3.1,0.8  s-1.7,1.3-2.2,2.2c-0.5,1-0.8,2-0.8,3.3c0,1.2,0.3,2.3,0.8,3.3s1.3,1.7,2.2,2.2c0.9,0.5,2,0.8,3.1,0.8S339,87.5,339.9,86.9"></path>
<linearGradient id="SVGID_00000156575600126186222290000016092616125572006016_" gradientUnits="userSpaceOnUse" x1="438.5545" y1="-22.2062" x2="62.7839" y2="202.9344" gradientTransform="matrix(1 0 0 -1 0 105.8898)">
	<stop offset="0" style="stop-color:#D29947"></stop>
	<stop offset="0.2352" style="stop-color:#FCE38C"></stop>
	<stop offset="0.3166" style="stop-color:#E5BA66"></stop>
	<stop offset="0.3893" style="stop-color:#D29947"></stop>
	<stop offset="0.529" style="stop-color:#E8C273"></stop>
	<stop offset="0.6687" style="stop-color:#FCE89B"></stop>
	<stop offset="0.8047" style="stop-color:#987A44"></stop>
	<stop offset="0.8855" style="stop-color:#603D14"></stop>
	<stop offset="0.9219" style="stop-color:#795019"></stop>
	<stop offset="0.954" style="stop-color:#8A5E1D"></stop>
	<stop offset="1" style="stop-color:#D29947"></stop>
</linearGradient>
<polygon style="fill:url(#SVGID_00000156575600126186222290000016092616125572006016_);" points="369.5,87.6 369.5,91.3 352.3,91.3   352.3,88.3 363.1,75.3 352.5,75.3 352.5,71.6 369.1,71.6 369.1,74.5 358.3,87.6 "></polygon>
<linearGradient id="SVGID_00000028303584505383973620000011877965986775102877_" gradientUnits="userSpaceOnUse" x1="443.5251" y1="-13.9103" x2="67.7544" y2="211.2305" gradientTransform="matrix(1 0 0 -1 0 105.8898)">
	<stop offset="0" style="stop-color:#D29947"></stop>
	<stop offset="0.2352" style="stop-color:#FCE38C"></stop>
	<stop offset="0.3166" style="stop-color:#E5BA66"></stop>
	<stop offset="0.3893" style="stop-color:#D29947"></stop>
	<stop offset="0.529" style="stop-color:#E8C273"></stop>
	<stop offset="0.6687" style="stop-color:#FCE89B"></stop>
	<stop offset="0.8047" style="stop-color:#987A44"></stop>
	<stop offset="0.8855" style="stop-color:#603D14"></stop>
	<stop offset="0.9219" style="stop-color:#795019"></stop>
	<stop offset="0.954" style="stop-color:#8A5E1D"></stop>
	<stop offset="1" style="stop-color:#D29947"></stop>
</linearGradient>
<path style="fill:url(#SVGID_00000028303584505383973620000011877965986775102877_);" d="M388.2,87h-9.1l-1.7,4.2h-4.7l8.8-19.7h4.5  l8.8,19.7H390L388.2,87z M386.8,83.6l-3.1-7.5l-3.1,7.5H386.8z"></path>
<line class="st18" x1="421.8" y1="21.2" x2="421.8" y2="93.5"></line>
<g class="st19">
	<g>
		<path class="st20" d="M540.1,52.5c-1.5,0-3-0.3-4.3-0.8s-2.5-1.2-3.4-2.1c-1-0.9-1.7-2-2.3-3.3s-0.8-2.6-0.8-4.1s0.3-2.9,0.8-4.1    c0.5-1.2,1.3-2.3,2.3-3.3c1-0.9,2.1-1.6,3.4-2.1c1.3-0.5,2.8-0.8,4.3-0.8c1.7,0,3.3,0.3,4.7,0.9c1.4,0.6,2.6,1.5,3.5,2.6l-3,2.7    c-0.7-0.8-1.5-1.4-2.3-1.7c-0.8-0.4-1.8-0.6-2.7-0.6s-1.8,0.2-2.6,0.5s-1.5,0.7-2,1.3c-0.6,0.6-1,1.2-1.3,2s-0.5,1.6-0.5,2.6    c0,0.9,0.2,1.8,0.5,2.6s0.8,1.4,1.3,2c0.6,0.6,1.2,1,2,1.3s1.6,0.5,2.6,0.5s1.9-0.2,2.7-0.6c0.8-0.4,1.6-1,2.3-1.8l3,2.7    c-1,1.2-2.1,2-3.5,2.6C543.5,52.2,541.9,52.5,540.1,52.5z"></path>
		<path class="st20" d="M556.1,48.5H567v3.7h-15.5V32.3h15.1V36h-10.5V48.5z M555.8,40.3h9.6v3.6h-9.6V40.3z"></path>
		<path class="st20" d="M570.7,52.2V32.3h3.8l11.8,14.3h-1.9V32.3h4.6v19.9h-3.8l-11.9-14.3h1.9v14.3    C575.2,52.2,570.7,52.2,570.7,52.2z"></path>
		<path class="st20" d="M598,52.2V36h-6.4v-3.7H609V36h-6.4v16.1H598V52.2z"></path>
		<path class="st20" d="M611.5,52.2V32.3h8.7c1.8,0,3.3,0.3,4.6,0.9c1.3,0.6,2.3,1.4,3,2.5s1.1,2.4,1.1,3.9s-0.4,2.8-1.1,3.8    s-1.7,1.9-3,2.5s-2.8,0.9-4.6,0.9h-6.1l2.1-2v7.6h-4.7V52.2z M616.2,45.1l-2.1-2.2h5.8c1.4,0,2.5-0.3,3.2-0.9    c0.7-0.6,1.1-1.5,1.1-2.5c0-1.1-0.4-1.9-1.1-2.6c-0.7-0.6-1.8-0.9-3.2-0.9h-5.8l2.1-2.2V45.1z M624.3,52.2l-5-7.2h5l5.1,7.2H624.3    z"></path>
		<path class="st20" d="M629.9,52.2l8.9-19.9h4.6l9,19.9h-4.9l-7.3-17.5h1.8l-7.4,17.5C634.6,52.2,629.9,52.2,629.9,52.2z     M634.4,47.9l1.2-3.5h10.3l1.3,3.5H634.4z"></path>
		<path class="st20" d="M654.5,52.2V32.3h4.6v16.1h10v3.7L654.5,52.2L654.5,52.2z"></path>
		<path class="st20" d="M442,80.2c0.9,0.5,2.2,1,3.6,1c2,0,3.2-1.1,3.2-2.6c0-1.4-0.8-2.3-2.9-3.1c-2.5-0.9-4.1-2.2-4.1-4.4    c0-2.4,2-4.2,5-4.2c1.6,0,2.7,0.4,3.4,0.8l-0.6,1.6c-0.5-0.3-1.5-0.7-2.9-0.7c-2.1,0-2.9,1.3-2.9,2.3c0,1.4,0.9,2.1,3.1,3    c2.6,1,4,2.3,4,4.5c0,2.4-1.8,4.4-5.4,4.4c-1.5,0-3.1-0.4-4-1L442,80.2z"></path>
		<path class="st20" d="M456.1,77.7l-1.6,4.8h-2.1l5.3-15.4h2.4l5.3,15.4h-2.1l-1.7-4.8H456.1z M461.2,76.2l-1.5-4.4    c-0.3-1-0.6-1.9-0.8-2.8l0,0c-0.2,0.9-0.5,1.8-0.8,2.8l-1.5,4.4H461.2z"></path>
		<path class="st20" d="M467.7,82.6V67.2h2.2l5,7.8c1.2,1.8,2,3.4,2.8,5l0,0c-0.2-2.1-0.2-3.9-0.2-6.3v-6.4h1.9v15.4h-2l-4.9-7.8    c-1.1-1.7-2.1-3.5-2.9-5.1h-0.1c0.1,1.9,0.2,3.8,0.2,6.3v6.6L467.7,82.6L467.7,82.6z"></path>
		<path class="st20" d="M500.8,75.8c-0.1-2.1-0.3-4.7-0.2-6.6h-0.1c-0.5,1.8-1.2,3.7-2,5.8l-2.7,7.5h-1.5l-2.5-7.3    c-0.7-2.2-1.4-4.2-1.8-6l0,0c0,1.9-0.2,4.5-0.3,6.8l-0.4,6.6h-1.9l1.1-15.4h2.6l2.6,7.4c0.6,1.9,1.2,3.6,1.6,5.2h0.1    c0.4-1.6,0.9-3.2,1.6-5.2l2.8-7.4h2.6l1,15.4h-2L500.8,75.8z"></path>
		<path class="st20" d="M508.5,77.7l-1.6,4.8h-2.1l5.3-15.4h2.4l5.3,15.4h-2.1l-1.7-4.8H508.5z M513.6,76.2l-1.5-4.4    c-0.3-1-0.6-1.9-0.8-2.8l0,0c-0.2,0.9-0.5,1.8-0.8,2.8l-1.5,4.4H513.6z"></path>
		<path class="st20" d="M520.1,67.4c1-0.2,2.5-0.3,3.8-0.3c2.1,0,3.5,0.4,4.5,1.3c0.8,0.7,1.2,1.7,1.2,2.9c0,2-1.3,3.4-2.9,3.9v0.1    c1.2,0.4,1.9,1.5,2.3,3.1c0.5,2.1,0.9,3.6,1.2,4.2h-2.1c-0.3-0.4-0.6-1.8-1-3.7c-0.5-2.1-1.3-2.9-3.1-3h-1.9v6.7h-2V67.4z     M522.1,74.4h2c2.1,0,3.5-1.2,3.5-2.9c0-2-1.4-2.9-3.6-2.9c-1,0-1.7,0.1-2,0.2L522.1,74.4L522.1,74.4z"></path>
		<path class="st20" d="M535.6,68.9h-4.7v-1.7h11.5v1.7h-4.7v13.7h-2L535.6,68.9L535.6,68.9z"></path>
		<path class="st20" d="M548.4,63.7l-2.9,2.7h-1.6l2.1-2.7H548.4z M546.1,67.2v15.4h-2V67.2H546.1z"></path>
		<path class="st20" d="M549.6,82.6V67.2h2.2l5,7.8c1.2,1.8,2,3.4,2.8,5l0,0c-0.2-2.1-0.2-3.9-0.2-6.3v-6.4h1.9v15.4h-2l-4.9-7.8    c-1.1-1.7-2.1-3.5-2.9-5.1h-0.1c0.1,1.9,0.2,3.8,0.2,6.3v6.6L549.6,82.6L549.6,82.6z"></path>
		<path class="st20" d="M572,82.6v-6.5l-4.9-8.9h2.3l2.2,4.2c0.6,1.2,1.1,2.1,1.5,3.2l0,0c0.4-1,1-2,1.6-3.2l2.2-4.2h2.3L574,76v6.5    L572,82.6L572,82.6z"></path>
		<path class="st20" d="M585.8,67.4c0.9-0.2,2.3-0.3,3.7-0.3c2,0,3.3,0.3,4.3,1.1c0.8,0.6,1.3,1.5,1.3,2.7c0,1.5-1,2.8-2.6,3.4l0,0    c1.5,0.4,3.2,1.6,3.2,3.9c0,1.3-0.5,2.3-1.3,3.1c-1.1,1-2.8,1.4-5.4,1.4c-1.4,0-2.4-0.1-3.1-0.2V67.4H585.8z M587.8,73.7h1.8    c2.1,0,3.4-1.1,3.4-2.6c0-1.8-1.4-2.5-3.4-2.5c-0.9,0-1.4,0.1-1.8,0.1V73.7z M587.8,81.1c0.4,0.1,1,0.1,1.7,0.1c2.1,0,4-0.8,4-3    c0-2.1-1.8-3-4-3h-1.7V81.1z"></path>
		<path class="st20" d="M598.3,67.4c1-0.2,2.5-0.3,3.8-0.3c2.1,0,3.5,0.4,4.5,1.3c0.8,0.7,1.2,1.7,1.2,2.9c0,2-1.3,3.4-2.9,3.9v0.1    c1.2,0.4,1.9,1.5,2.3,3.1c0.5,2.1,0.9,3.6,1.2,4.2h-2.1c-0.3-0.4-0.6-1.8-1-3.7c-0.5-2.1-1.3-2.9-3.1-3h-1.9v6.7h-2V67.4z     M600.3,74.4h2c2.1,0,3.5-1.2,3.5-2.9c0-2-1.4-2.9-3.6-2.9c-1,0-1.7,0.1-2,0.2L600.3,74.4L600.3,74.4z"></path>
		<path class="st20" d="M613.3,77.7l-1.6,4.8h-2.1l5.3-15.4h2.4l5.3,15.4h-2.1l-1.7-4.8H613.3z M618.4,76.2l-1.5-4.4    c-0.3-1-0.6-1.9-0.8-2.8l0,0c-0.2,0.9-0.5,1.8-0.8,2.8l-1.5,4.4H618.4z"></path>
		<path class="st20" d="M624.6,80.2c0.9,0.5,2.2,1,3.6,1c2,0,3.2-1.1,3.2-2.6c0-1.4-0.8-2.3-2.9-3.1c-2.5-0.9-4.1-2.2-4.1-4.4    c0-2.4,2-4.2,5-4.2c1.6,0,2.7,0.4,3.4,0.8l-0.6,1.6c-0.5-0.3-1.5-0.7-2.9-0.7c-2.1,0-2.9,1.3-2.9,2.3c0,1.4,0.9,2.1,3.1,3    c2.6,1,4,2.3,4,4.5c0,2.4-1.8,4.4-5.4,4.4c-1.5,0-3.1-0.4-4-1L624.6,80.2z"></path>
		<path class="st20" d="M638.2,67.2v15.4h-2V67.2H638.2z"></path>
		<path class="st20" d="M641.7,67.2h2v13.7h6.6v1.7h-8.6V67.2z"></path>
	</g>
</g>
<g>
	<path class="st20" d="M449.5,52.7c-1.6,0-3.1-0.2-4.6-0.6c-1.5-0.4-2.7-1-3.6-1.7l1.6-3.5c0.9,0.6,1.9,1.1,3.1,1.5s2.4,0.6,3.6,0.6   c0.9,0,1.7-0.1,2.2-0.3c0.6-0.2,1-0.4,1.2-0.8c0.3-0.3,0.4-0.7,0.4-1.1c0-0.5-0.2-1-0.6-1.3c-0.4-0.3-1-0.6-1.7-0.8   c-0.7-0.2-1.5-0.4-2.3-0.6c-0.8-0.2-1.7-0.4-2.5-0.7c-0.8-0.3-1.6-0.6-2.3-1s-1.2-1-1.7-1.7c-0.4-0.7-0.6-1.6-0.6-2.6   c0-1.1,0.3-2.2,0.9-3.1c0.6-0.9,1.6-1.7,2.8-2.3s2.8-0.8,4.7-0.8c1.3,0,2.5,0.1,3.7,0.4s2.3,0.7,3.2,1.3l-1.4,3.5   c-0.9-0.5-1.9-0.9-2.8-1.2c-0.9-0.3-1.9-0.4-2.8-0.4s-1.6,0.1-2.2,0.3s-1,0.5-1.2,0.8c-0.2,0.3-0.4,0.7-0.4,1.2   c0,0.5,0.2,0.9,0.6,1.2c0.4,0.3,1,0.6,1.7,0.8c0.7,0.2,1.4,0.4,2.3,0.6c0.8,0.2,1.7,0.4,2.5,0.7c0.8,0.2,1.6,0.6,2.3,1   c0.7,0.4,1.2,1,1.7,1.7s0.6,1.6,0.6,2.6c0,1.1-0.3,2.2-0.9,3.1c-0.6,0.9-1.6,1.7-2.8,2.3S451.4,52.7,449.5,52.7z"></path>
	<path class="st20" d="M465.8,48.6h10.9v3.7h-15.6V32.2h15.2v3.7h-10.6V48.6z M465.5,40.3h9.7v3.6h-9.7V40.3z"></path>
	<path class="st20" d="M480.5,52.3V32.2h9.1c2.2,0,4.1,0.4,5.8,1.2c1.7,0.8,3,2,3.9,3.5c0.9,1.5,1.4,3.3,1.4,5.3   c0,2-0.5,3.8-1.4,5.3c-0.9,1.5-2.2,2.7-3.9,3.5s-3.6,1.2-5.8,1.2H480.5z M485.1,48.5h4.2c1.3,0,2.5-0.3,3.5-0.8   c1-0.5,1.8-1.2,2.3-2.2c0.5-0.9,0.8-2,0.8-3.3c0-1.3-0.3-2.4-0.8-3.3c-0.5-0.9-1.3-1.6-2.3-2.2c-1-0.5-2.1-0.8-3.5-0.8h-4.2V48.5z"></path>
	<path class="st20" d="M508.8,48.6h10.9v3.7h-15.6V32.2h15.2v3.7h-10.6V48.6z M508.5,40.3h9.7v3.6h-9.7V40.3z"></path>
</g>
</svg>
